<?xml version="1.0" encoding="UTF-8" standalone="no"?>
<!-- Created with Inkscape (http://www.inkscape.org/) -->

<svg
   xmlns:dc="http://purl.org/dc/elements/1.1/"
   xmlns:cc="http://creativecommons.org/ns#"
   xmlns:rdf="http://www.w3.org/1999/02/22-rdf-syntax-ns#"
   xmlns:svg="http://www.w3.org/2000/svg"
   xmlns="http://www.w3.org/2000/svg"
   xmlns:sodipodi="http://sodipodi.sourceforge.net/DTD/sodipodi-0.dtd"
   xmlns:inkscape="http://www.inkscape.org/namespaces/inkscape"
   version="1.1"
   id="svg2"
   xml:space="preserve"
   width="200.53534"
   height="43.686741"
   viewBox="0 0 200.53534 43.686741"
   sodipodi:docname="RatePAY.svg"
   inkscape:version="0.92.1 r15371"><metadata
     id="metadata8"><rdf:RDF><cc:Work
         rdf:about=""><dc:format>image/svg+xml</dc:format><dc:type
           rdf:resource="http://purl.org/dc/dcmitype/StillImage" /><dc:title></dc:title></cc:Work></rdf:RDF></metadata><defs
     id="defs6"><clipPath
       clipPathUnits="userSpaceOnUse"
       id="clipPath20"><path
         d="M 15,15 H 272.953 V 187.913 H 15 Z"
         id="path18"
         inkscape:connector-curvature="0" /></clipPath><clipPath
       clipPathUnits="userSpaceOnUse"
       id="clipPath128"><path
         d="M 0,0 H 287.953 V 202.913 H 0 Z"
         id="path126"
         inkscape:connector-curvature="0" /></clipPath></defs><sodipodi:namedview
     pagecolor="#ffffff"
     bordercolor="#666666"
     borderopacity="1"
     objecttolerance="10"
     gridtolerance="10"
     guidetolerance="10"
     inkscape:pageopacity="0"
     inkscape:pageshadow="2"
     inkscape:window-width="1916"
     inkscape:window-height="1041"
     id="namedview4"
     showgrid="false"
     inkscape:zoom="1.7445901"
     inkscape:cx="-86.171134"
     inkscape:cy="18.5604"
     inkscape:window-x="1920"
     inkscape:window-y="18"
     inkscape:window-maximized="0"
     inkscape:current-layer="g10"
     fit-margin-top="2"
     fit-margin-left="2"
     fit-margin-right="2"
     fit-margin-bottom="2" /><g
     id="g10"
     inkscape:groupmode="layer"
     inkscape:label="RATEPAY_VK_85x55_RK"
     transform="matrix(1.3333333,0,0,-1.3333333,-91.700255,157.11794)"><g
       id="g22"
       transform="translate(76.8893,116.3383)"><path
         d="M 0,0 H 11.337 C 11.432,-0.017 -6.65,-17.294 -6.614,-17.247 V -6.614 C -6.614,-2.961 -3.653,0 0,0"
         style="fill:#d1c08f;fill-opacity:1;fill-rule:nonzero;stroke:none"
         id="path24"
         inkscape:connector-curvature="0" /></g><g
       id="g26"
       transform="translate(85.0834,92.8004)"
       style="fill:#22324e;fill-opacity:1"><path
         d="m 0,0 -3.859,2.038 c -4.197,-4.199 -7.471,-7.47 -7.481,-7.47 0.936,-0.507 2.007,-0.795 3.146,-0.795 H 8.334 c 3.652,0 6.613,2.961 6.613,6.614 V 13.239 L 1.44,-0.251 C 1.083,-0.629 0.472,-0.219 0,0"
         style="fill:#22324e;fill-opacity:1;fill-rule:nonzero;stroke:none"
         id="path28"
         inkscape:connector-curvature="0" /></g><g
       id="g30"
       transform="translate(116.7517,100.7225)"
       style="fill:#22324e;fill-opacity:1"><path
         d="M 0,0 V -0.066 C 1.225,-0.695 2.119,-1.92 2.814,-3.443 l 3.575,-7.846 H 2.417 l -3.377,7.582 c -0.728,1.622 -1.854,2.581 -3.675,2.581 h -2.118 v -10.163 h -3.674 v 23.041 c 1.788,0.795 4.336,1.291 6.818,1.291 5.761,0 8.74,-2.747 8.74,-6.985 C 5.131,2.417 2.847,0.629 0,0 m -3.542,10.163 c -1.192,0 -2.45,-0.199 -3.211,-0.497 V 1.589 h 2.814 c 3.41,0 5.395,1.225 5.395,4.304 0,2.648 -1.588,4.27 -4.998,4.27 m 18.68,-21.83 c -5.342,0 -8.031,2.172 -8.031,5.825 0,5.17 5.515,6.1 11.133,6.41 V 1.74 c 0,2.344 -1.551,3.171 -3.93,3.171 -1.757,0 -3.894,-0.551 -5.135,-1.137 L 8.21,6.358 c 1.483,0.655 3.998,1.31 6.48,1.31 4.446,0 7.135,-1.723 7.135,-6.307 v -11.719 c -1.345,-0.723 -4.067,-1.309 -6.687,-1.309 m 3.102,9.719 c -3.791,-0.207 -7.583,-0.517 -7.583,-3.826 0,-1.964 1.516,-3.171 4.378,-3.171 1.206,0 2.619,0.208 3.205,0.483 z m 13.923,-6.273 c 0.449,0 0.966,0.104 1.276,0.242 v -3.137 c -0.449,-0.207 -1.38,-0.413 -2.344,-0.413 -3.274,0 -5.101,1.826 -5.101,5.445 V 4.463 h -2.516 v 2.826 h 2.516 v 4.309 l 3.688,1.137 V 7.289 h 3.757 V 4.463 h -3.757 v -10.34 c 0,-1.689 1.103,-2.344 2.481,-2.344 m 18.474,6.308 -12.339,-1.724 c 0.379,-3.343 2.55,-5.032 5.687,-5.032 1.861,0 3.86,0.448 5.135,1.138 l 1.103,-2.827 c -1.447,-0.758 -3.929,-1.309 -6.479,-1.309 -5.86,0 -9.134,3.756 -9.134,9.685 0,5.687 3.171,9.65 8.374,9.65 4.826,0 7.687,-3.17 7.687,-8.168 0,-0.448 0,-0.931 -0.034,-1.413 m -7.721,6.824 c -2.895,0 -4.791,-2.206 -4.859,-6.066 l 8.995,1.241 c -0.035,3.239 -1.654,4.825 -4.136,4.825 m 16.258,-6.732 c -0.894,0 -1.92,0.099 -2.516,0.199 v -9.667 h -3.675 v 23.074 c 1.722,0.795 4.04,1.258 6.621,1.258 5.728,0 8.872,-2.913 8.872,-7.482 0,-4.27 -3.244,-7.382 -9.302,-7.382 m 0.463,11.984 c -1.158,0 -2.317,-0.232 -2.979,-0.497 V 1.258 c 0.563,-0.099 1.522,-0.165 2.384,-0.165 3.74,0 5.759,1.721 5.759,4.501 0,3.013 -1.82,4.569 -5.164,4.569 m 23.2,-21.452 -2.119,6.323 h -8.871 l -2.119,-6.323 h -3.907 l 8.277,23.968 h 4.369 l 8.276,-23.968 z M 77.01,6.753 C 76.58,8.078 76.316,9.6 76.316,9.6 h -0.067 c 0,0 -0.265,-1.522 -0.695,-2.847 l -2.947,-8.938 h 7.35 z m 16.533,-8.541 v -9.501 h -3.741 v 9.501 L 82.42,12.679 h 4.039 L 91.656,1.987 h 0.067 l 5.164,10.692 h 4.038 z"
         style="fill:#22324e;fill-opacity:1;fill-rule:nonzero;stroke:none"
         id="path32"
         inkscape:connector-curvature="0" /></g><g
       id="g34"
       transform="translate(77.6712,96.7162)"><path
         d="m 0,0 c -0.275,0.179 -0.366,0.451 -0.376,1.325 l 0.065,4.964 C -0.322,6.807 0.057,6.903 0.532,6.69 L 7.391,3.261 C 7.865,3.049 7.96,2.983 8.324,3.354 l 13.059,13.112 c -1.163,1.893 -3.252,3.156 -5.637,3.156 H 10.555 C 10.65,19.699 -7.409,2.328 -7.396,2.375 v -5.904 c 0,-2.495 1.428,-4.693 3.468,-5.819 0.015,0 3.296,3.267 7.498,7.462 z"
         style="fill:#f9ab2b;fill-opacity:1;fill-rule:nonzero;stroke:none"
         id="path36"
         inkscape:connector-curvature="0" /></g></g></svg>